<?xml version="1.0" encoding="utf-8"?>
<!-- Generator: Adobe Illustrator 27.0.0, SVG Export Plug-In . SVG Version: 6.00 Build 0)  -->
<svg version="1.1" id="Lager_1" xmlns="http://www.w3.org/2000/svg" xmlns:xlink="http://www.w3.org/1999/xlink" x="0px" y="0px"
	 viewBox="0 0 170.1 170.1" style="enable-background:new 0 0 170.1 170.1;" xml:space="preserve">
<style type="text/css">
	.st0{fill:#AFCA0B;}
	.st1{fill:#FFFFFF;}
</style>
<circle class="st0" cx="85" cy="85" r="85"/>
<g>
	<path class="st1" d="M85,132.5c-0.8,0-1.7-0.3-2.4-0.8c-23.8-17.6-35.4-34.6-35.4-52c0-23.4,15.2-39.1,37.8-39.1
		c22.6,0,37.8,15.7,37.8,39.1c0,17.4-11.6,34.4-35.4,52C86.7,132.2,85.9,132.5,85,132.5z M85,48.7c-18,0-29.7,12.1-29.7,30.9
		c0,14.1,9.7,28.4,29.7,43.7c20-15.3,29.7-29.6,29.7-43.7C114.7,60.9,103.1,48.7,85,48.7z"/>
</g>
<g>
	<path class="st1" d="M84.8,94.2c-8.7,0-15.8-7.1-15.8-15.8s7.1-15.8,15.8-15.8s15.8,7.1,15.8,15.8S93.6,94.2,84.8,94.2z M84.8,70.7
		c-4.3,0-7.7,3.5-7.7,7.7s3.5,7.7,7.7,7.7c4.3,0,7.7-3.5,7.7-7.7S89.1,70.7,84.8,70.7z"/>
</g>
</svg>
