<?xml version="1.0" encoding="utf-8"?>
<!-- Generator: Adobe Illustrator 27.0.0, SVG Export Plug-In . SVG Version: 6.00 Build 0)  -->
<svg version="1.1" id="Lager_1" xmlns="http://www.w3.org/2000/svg" xmlns:xlink="http://www.w3.org/1999/xlink" x="0px" y="0px"
	 viewBox="0 0 170.1 170.1" style="enable-background:new 0 0 170.1 170.1;" xml:space="preserve">
<style type="text/css">
	.st0{fill:#AFCA0B;}
	.st1{fill:#FFFFFF;}
</style>
<circle class="st0" cx="85" cy="85" r="85"/>
<path class="st1" d="M85,38.5c-25,0-45.4,20.4-45.4,45.4s20.4,45.4,45.4,45.4c10.5,0,20.8-3.7,28.9-10.4c1.7-1.4,2-4,0.5-5.7
	c-1.4-1.7-4-2-5.7-0.5c-6.7,5.5-15.1,8.5-23.7,8.5c-20.6,0-37.3-16.7-37.3-37.3S64.4,46.7,85,46.7s37.3,16.7,37.3,37.3
	c0,2.4-0.2,4.8-0.7,7.2c-0.4,1-2.3,5-8.5,5c-5.8,0-7.6-4.5-8-6v-2.9c0.2-1.2,0.3-2.3,0.3-3.5s-0.1-2.4-0.3-3.5V67.3
	c0-2.2-1.8-4.1-4.1-4.1c-2.2,0-4,1.8-4.1,4c-3.4-2.5-7.6-4-12.1-4c-11.3,0-20.5,9.2-20.5,20.5s9.2,20.5,20.5,20.5
	c5.9,0,11.3-2.5,15-6.6c2.5,3.4,6.7,6.6,13.2,6.6c10.4,0,15.2-7.1,16.3-10.9c0-0.1,0.1-0.2,0.1-0.4c0.6-3,0.9-6,0.9-9.1
	C130.4,58.9,110,38.5,85,38.5z M84.9,96.1c-6.8,0-12.4-5.6-12.4-12.4S78,71.3,84.9,71.3c5.9,0,10.8,4.1,12.1,9.6v5.6
	C95.7,92,90.8,96.1,84.9,96.1z"/>
</svg>
